<svg xmlns="http://www.w3.org/2000/svg" width="91" height="71" viewBox="-45.5 -46 91 71" style=""><g><defs></defs><g><path transform="matrix(0.2,0,0,-0.2,0,0)" style="stroke-width: 10px; stroke: hsla(35.99999999999998, 100%, 90.19607843137256%, 1); stroke-linecap: butt; stroke-linejoin: miter;  fill: none;" d="M 0,0 M 75,26 L 35,100 L 35,110 C 70,115 70,90 35,90 M -35,95 L -45,120 L -55,120 L -30,120 "></path><g><g><circle transform="matrix(0.2,0,0,-0.2,-14.5,-6)" style="stroke-width: 10px; stroke: hsla(35.99999999999998, 100%, 90.19607843137256%, 1); stroke-linecap: butt; stroke-linejoin: miter;  fill: none;" r="50"></circle><circle transform="matrix(0.2,0,0,-0.2,14.5,-6)" style="stroke-width: 10px; stroke: hsla(35.99999999999998, 100%, 90.19607843137256%, 1); stroke-linecap: butt; stroke-linejoin: miter;  fill: none;" r="50"></circle></g><g><path transform="matrix(0.2,0,0,-0.2,-8.000000000000002,-12)" style="stroke-width: 10px; stroke: hsla(35.99999999999998, 100%, 90.19607843137256%, 1); stroke-linecap: butt; stroke-linejoin: miter;  fill: none;" d="M -35,-35 L 0,35 L 35,-35 Z"></path><path transform="matrix(-0.2,-2.4492935982947065e-17,-2.4492935982947065e-17,0.2,0.6000000000000001,-12)" style="stroke-width: 10px; stroke: hsla(35.99999999999998, 100%, 90.19607843137256%, 1); stroke-linecap: butt; stroke-linejoin: miter;  fill: none;" d="M -35,-32.5 L 0,32.5 L 35,-32.5 Z"></path></g></g></g></g></svg>
